<svg id="Capa_1" data-name="Capa 1" xmlns="http://www.w3.org/2000/svg" viewBox="0 0 902.86 748.42"><path d="M671.5,577.83,782,145.22H902.86v-68H729.17l-26,102L0,178.7,74.75,577.83Zm14.27-330.64L618.69,509.83H131.2L81.93,246.76Z" transform="translate(0 -77.22)"/><path d="M578.42,825.64a108.75,108.75,0,0,0,0-217.49H168.72a108.77,108.77,0,1,0,100.81,68H477.6A108.73,108.73,0,0,0,578.42,825.64Zm-369-108.74a40.75,40.75,0,1,1-40.74-40.75A40.79,40.79,0,0,1,209.46,716.9Zm409.7,0a40.74,40.74,0,1,1-40.74-40.75A40.78,40.78,0,0,1,619.16,716.9Z" transform="translate(0 -77.22)"/><polygon points="59.97 152.78 103 445.78 635 455.78 714 152.78 55 152.78 59.97 152.78"/></svg>