<svg xmlns="http://www.w3.org/2000/svg" viewBox="0 0 617.97 566.97"><defs><style>.cls-1{fill:#6b68ff;}.cls-1,.cls-10,.cls-2,.cls-24,.cls-3{stroke:#003bb8;}.cls-1,.cls-10,.cls-13,.cls-14,.cls-17,.cls-18,.cls-19,.cls-2,.cls-24,.cls-3,.cls-4,.cls-5{stroke-miterlimit:10;}.cls-10,.cls-2,.cls-21,.cls-24{fill:#fff;}.cls-18,.cls-26,.cls-3{fill:none;}.cls-3{stroke-width:0.5px;}.cls-4{fill:#0b083b;}.cls-13,.cls-14,.cls-17,.cls-19,.cls-4,.cls-5{stroke:#000;}.cls-5{fill:#0c0a3b;}.cls-6{fill:#0c1d6a;}.cls-7{fill:#00b6d1;}.cls-8{fill:#004ccd;}.cls-9{fill:#001ab0;}.cls-10,.cls-18,.cls-24{stroke-width:0.75px;}.cls-11{fill:#000a3e;}.cls-12{fill:#004dae;}.cls-13{fill:#90e0ff;}.cls-14{fill:#00d1d1;}.cls-15{fill:#2085ca;}.cls-16{fill:#00003b;}.cls-17{fill:#0a1a54;}.cls-18{stroke:#002260;}.cls-19{fill:#2a003b;}.cls-20{fill:#000b36;}.cls-21{opacity:0.5;}.cls-22{fill:#277cff;}.cls-23,.cls-25{fill:#7adbf8;}.cls-24{opacity:0.3;}.cls-25{opacity:0.2;}</style></defs><g id="Layer_2" data-name="Layer 2"><path class="cls-1" d="M365.67,83.28c-3.72-2.55-5.63,4.07-5.18,7.13.5,3.31,2.91,5.38,5.24,7.86,6.23,6.61,4.37,12.46,4.31,21.24,12.76,4.06,13-25.9,6-31.92" transform="translate(-106.61 -13.88)"/><path class="cls-2" d="M389.73,117c.66-10.53,3.23-20.24-2-29.79-4.67-8.53-17.54-11.44-24.65-4.19,8.93,1.71,13.25,9,13.27,17.3,0,4.87-6.23,21,1.38,22.36" transform="translate(-106.61 -13.88)"/><path class="cls-3" d="M364.83,83c1.8.3,2.72-1.57,4-2.4a7.49,7.49,0,0,1,4.11-.95c-.91.85-2.49,1-3.36,2.06-1.27,1.49-.61,2.5,1.28,1.91,1.23-.38,2.47-1.89,3.94-2.36a11,11,0,0,1,4.7-.39c-.32,1.78-4.16,2.4-5.71,3-1.27.5-4.31,1.73-1.37,2.54,3.24.9,9.19-4.92,12.21-1.45-.75,1.57-11.94,3-10.31,5.36,1.09,1.58,5.41-.54,6.65-.81,1.64-.36,4.38-.69,6,.14,3.35,1.72-.28,2.71-2.36,2.81-1.87.09-5.18-.16-6.7,1.26-2.41,2.26,1,2.73,2.93,2.21,2.13-.56,4-1.63,6.35-1.57,1.65,0,4.51,1,2.56,2.83-1.54,1.45-5.57.17-7.45.27-1.3.07-4.88.91-5.13,2.48-.37,2.39,5.12.63,6.36.57,1.54-.07,5.13-.13,6.18,1.22,1.54,2-2.55,2.77-4.21,2.5-2.66-.42-4.53-1.58-7.3-.64-1.79.61-3.1,1.64-.75,2.63,2.18.92,5.36-.61,7.79-.46,1.08.06,7.84.79,5,2.42-2,1.11-15.38-2.56-14.85,1.9,3.06,1.48,6.77-.55,10.09-.24,1.28.11,3.74.85,3,2.74-.53,1.36-2.66,1-3.9.85-1.42-.15-9.51-1.77-10,.27-.42,1.62,7.07,2,8.4,2" transform="translate(-106.61 -13.88)"/><path class="cls-4" d="M696.25,479.82c21,10.28-17.15,51.85-28.09,62-15.82,14.63-63.8,25.7-72.18,16,16.63-19.95,40.5-48.46,57.4-68.86" transform="translate(-106.61 -13.88)"/><path class="cls-5" d="M282.27,194.39c-3.83,14.78-28.92,37.6-33.33,54.1-3.79,14.22-2.6,32.73,7.11,44.49,5.47,6.63,9.85,8.14,13.09,15.59,2.77,6.37,4.27,13.14,9.48,18.85,5.63,6.18,11.79,4.51,18.06,8.5,5.34,3.39,7.83,11.64,13.74,15.94,9.64,7,22.86,4,32.5,12,11.71,9.67,12.73,22,14.55,35.28,2.56,18.61,1.91,60.9,28,64.26-.86,13.21,8.58,37.21,24.81,37,3.19,15.82,14.29,24.17,29.39,27.47,6.66,1.46,17,.23,22.63,3.47,5.94,3.39,9.81,9.86,16.88,13.28a45.18,45.18,0,0,0,20.84,5c6.36.07,15.28-4.28,20.67-3.47s12.26,6.82,17.54,8.54c6.23,2,14,4.68,20.88,5.1,7.45.45,15-1.38,19.92-7.48,23.21,28.85,54.38-27.07,63.63-39.76,10.08-13.82,12.77-23.53,29.36-25.24,4.27-.44,22.13,1,25.11-1.48,10.23-8.58-13.75-14.52-19.06-15.5-37.07-6.83-63.93,15.51-97.72,25.39-35,10.21-74.67,1.7-104.3-18.67-58.49-40.22-63.78-120.6-108.49-172.74-22.7-26.47-59.7-41.5-70.44-77.18" transform="translate(-106.61 -13.88)"/><path class="cls-6" d="M307.4,165.22c-30.14,9.27-36,59.3-29.89,84.91a128.09,128.09,0,0,0,24,48.53c10.15,12.8,24.34,20.43,36.94,30.77s25.77,23.29,35.72,36c9.7,12.39,14.73,27.38,21.25,41.58,14.22,31,24.22,63.4,50.27,87.3,22.94,21,57.57,34.61,87.06,38,30,3.5,66.29,9.38,92.88-7,13.61-8.39,15.75-22,25.13-32.27,11.19-12.29,29.53-9.47,44.45-9.37,1.58-10.3-28-27.14-35.69-33.39-12.25-9.92-25.25-21.59-40.69-25.72-18.1-4.84-31.92,3.9-48.85,9.5-21.36,7.06-47.19,7-68.32-.78-38.93-14.34-50.94-45.07-65.08-81.69-17.29-44.77-33.91-90.88-73.22-120.86-6.49-5-17.59-16-26.05-15.72" transform="translate(-106.61 -13.88)"/><path d="M307.4,165.22A32.9,32.9,0,0,0,298,170a39.11,39.11,0,0,0-7.58,7.35A61,61,0,0,0,280.68,196a88.69,88.69,0,0,0-2.74,10.23,102.3,102.3,0,0,0-1.65,10.45,112.28,112.28,0,0,0-.33,21.14,81.63,81.63,0,0,0,1.48,10.45c.34,1.73.84,3.41,1.31,5.12s.91,3.42,1.52,5.07a120.34,120.34,0,0,0,8.28,19.42c.86,1.54,1.61,3.14,2.55,4.63l2.73,4.53c2,2.93,3.86,5.9,6.05,8.66l1.59,2.11c.48.69,1.13,1.34,1.69,2l1.75,2,.87,1c.31.32.63.61.94.92,1.27,1.21,2.49,2.46,3.79,3.63l4,3.42c5.5,4.41,11.33,8.41,17,12.62,1.43,1.05,2.85,2.1,4.24,3.21s2.84,2.17,4.15,3.35l8,6.91a230.73,230.73,0,0,1,28.9,31.19,116.2,116.2,0,0,1,10.38,18.62c3,6.44,5.6,13,8.55,19.41,5.93,12.86,11.18,26,17.16,38.8,3,6.39,6.14,12.69,9.68,18.78a144.6,144.6,0,0,0,11.88,17.39c1.13,1.34,2.19,2.75,3.38,4l3.55,3.88,3.77,3.68.94.91,1,.86,2,1.74a132.65,132.65,0,0,0,17.08,12.28A157.13,157.13,0,0,0,485,518.16a181.13,181.13,0,0,0,19.78,7.32,166.15,166.15,0,0,0,20.52,4.84c6.92,1.14,14,1.83,21,2.68,14,1.63,28.12,2.93,42.14,2a94.37,94.37,0,0,0,20.67-3.49,64.08,64.08,0,0,0,18.76-8.95,35.91,35.91,0,0,0,7.19-7.32,81.68,81.68,0,0,0,5.61-8.84c1.76-3.07,3.5-6.18,5.55-9.14a35.13,35.13,0,0,1,7.3-8,29.57,29.57,0,0,1,9.76-4.89,47.32,47.32,0,0,1,10.65-1.77c7.16-.46,14.26.1,21.28.16l-.94.81a6.14,6.14,0,0,0-.57-3.31,16.33,16.33,0,0,0-1.88-3.17,41.63,41.63,0,0,0-5.22-5.59,131.46,131.46,0,0,0-12.22-9.61c-4.24-3-8.59-5.89-12.88-8.94-1.07-.75-2.16-1.58-3.16-2.41l-3-2.48-6.07-4.94a153.85,153.85,0,0,0-12.56-9.22,69.36,69.36,0,0,0-13.74-7c-1.2-.47-2.43-.84-3.66-1.2l-.46-.14-.19-.06-.24,0-1-.22-1.91-.43c-1.26-.2-2.5-.39-3.77-.52s-2.54-.21-3.82-.14l-1.92,0-1.91.17c-1.28.07-2.54.34-3.81.52a67.45,67.45,0,0,0-7.5,1.89c-9.87,3.07-19.36,7.8-29.66,10.23a110.6,110.6,0,0,1-31.34,3,101.88,101.88,0,0,1-30.88-6.15l-3.62-1.5-1.81-.75a15.8,15.8,0,0,1-1.79-.8l-3.54-1.8a35.36,35.36,0,0,1-3.47-1.9,74.27,74.27,0,0,1-6.61-4.32l-3.18-2.35c-1-.83-2-1.72-3-2.58A87.6,87.6,0,0,1,463,406.35a115.82,115.82,0,0,1-8.7-13.14,222.23,222.23,0,0,1-13.26-28.47c-7.7-19.44-14.72-39.14-23.18-58.23a291.06,291.06,0,0,0-14-28A186.39,186.39,0,0,0,386,252.87a145.25,145.25,0,0,0-22.44-21.76c-4.12-3.23-8-6.77-12.19-9.85a47.43,47.43,0,0,0-6.62-4.16,16.57,16.57,0,0,0-7.48-2,16.72,16.72,0,0,1,7.5,2,47.07,47.07,0,0,1,6.66,4.13c4.25,3,8.13,6.57,12.26,9.76a145.33,145.33,0,0,1,22.62,21.66,184.57,184.57,0,0,1,18.06,25.63,289,289,0,0,1,14.27,27.94c4.3,9.54,8.25,19.22,12.07,28.95s7.52,19.51,11.41,29.2a222.1,222.1,0,0,0,13.29,28.27,115.71,115.71,0,0,0,8.64,13,86.92,86.92,0,0,0,10.71,11.24c1,.84,1.94,1.72,2.95,2.52l3.14,2.3a75.42,75.42,0,0,0,6.51,4.22,35.14,35.14,0,0,0,3.41,1.85l3.45,1.74a19,19,0,0,0,1.78.8l1.81.74,3.63,1.48a100.39,100.39,0,0,0,30.38,5.93,110.36,110.36,0,0,0,30.85-3.07c10.11-2.39,19.49-7.08,29.57-10.24a67.1,67.1,0,0,1,7.69-1.95c1.32-.18,2.62-.46,4-.54l2-.18,2,0c1.34-.07,2.67.09,4,.15s2.68.33,4,.54l1.91.43,1,.22.24.05.28.08.47.14c1.28.38,2.55.76,3.79,1.24a71.05,71.05,0,0,1,14.11,7.2,155.72,155.72,0,0,1,12.71,9.31l6.1,4.95,3,2.47c1,.83,2,1.59,3.07,2.34,4.24,3,8.63,5.87,12.89,8.92a131.52,131.52,0,0,1,12.41,9.74A42.81,42.81,0,0,1,693.3,476a17.5,17.5,0,0,1,2.11,3.56,8,8,0,0,1,.7,4.32l-.12.82h-.82c-7.12-.07-14.17-.61-21.14-.15a46.06,46.06,0,0,0-10.23,1.71,27.89,27.89,0,0,0-9.08,4.55,33.07,33.07,0,0,0-6.92,7.61c-2,2.86-3.69,5.93-5.45,9a84.12,84.12,0,0,1-5.73,9.07,38.41,38.41,0,0,1-7.63,7.76,66.12,66.12,0,0,1-19.35,9.21,96,96,0,0,1-21.1,3.53c-14.24.92-28.45-.41-42.49-2.06-7-.87-14-1.56-21.09-2.73a169.35,169.35,0,0,1-20.74-4.91,184.24,184.24,0,0,1-20-7.43A155.55,155.55,0,0,1,465.32,510c-12.12-7.4-23.34-16.59-32.14-27.83a146.24,146.24,0,0,1-12-17.62c-3.57-6.15-6.74-12.5-9.74-18.93-6-12.87-11.14-26-17-38.87-2.94-6.46-5.55-13-8.48-19.45a114.92,114.92,0,0,0-10.17-18.42,230.22,230.22,0,0,0-28.58-31.06l-8-6.95c-1.31-1.19-2.71-2.2-4.09-3.32s-2.79-2.16-4.21-3.21c-5.65-4.22-11.48-8.24-17-12.71l-4-3.47c-1.33-1.19-2.57-2.48-3.86-3.72-.32-.31-.64-.62-.95-.94l-.87-1-1.74-2c-.57-.69-1.18-1.29-1.72-2.05l-1.59-2.14c-2.18-2.8-4.07-5.81-6-8.77L290.34,283c-.93-1.51-1.68-3.12-2.53-4.68a120.38,120.38,0,0,1-8.21-19.61c-.6-1.67-1-3.39-1.49-5.09s-1-3.42-1.29-5.17a83.38,83.38,0,0,1-1.42-10.54,112.4,112.4,0,0,1,.47-21.23,106,106,0,0,1,1.73-10.48,89.22,89.22,0,0,1,2.82-10.24,61,61,0,0,1,9.87-18.69,39,39,0,0,1,7.65-7.31A32.6,32.6,0,0,1,307.4,165.22Z" transform="translate(-106.61 -13.88)"/><path class="cls-7" d="M256.84,243.24c-25,45.73,19.69,39,15.63,63.73-1,6.17,3,10.33,8.43,13.94s12.71,2.14,17.92,6.27c9.81,7.78,5.76,19.71,20.66,22.76,9.84,2,22.15.85,25.93,12.33,1.95-31.53-24.24-11.22-31.29-17.51-4.36-3.88-1.81-14.15-4.33-19.28-3.19-6.47-5.34-7.36-12.27-9.64-7.22-2.37-18.4,2.85-20.87-5.27-1.95-6.41,4.62-17.2-.84-22.58-9.25-9.11-17.13-4.43-22.23-18.94-1.67-4.76-1.21-21.53,3.21-25.46" transform="translate(-106.61 -13.88)"/><path class="cls-7" d="M366.61,411.67c-6.17,9.32-1.71,29.85,3.66,37.89,6.92,10.35,25,4.15,23.4,18.82C392,484,395.41,492.17,414,494c8.73.87,2.33,5.24,4.49,13.25,1.46,5.4,4.67,12.16,9.4,15.52,10.9,7.74,24.74-3.15,36.49.53,10,3.15,11.14,19.6,22.4,22.65,12.42,3.37,22.67-12,35.74-6.89,12.9,5,20.36,19.81,35.81,19.14,10.88-.46,17.24-10.52,28.7-10.51-8.59-13.71-22.57,0-33.18.55-12.82.68-20.56-8.31-31.18-11.89-12.29-4.14-26.36,3-37.37-2-5.12-2.3-9.05-7.79-13.54-11.06-5.22-3.8-9-4.75-15.66-4.78-13-.07-23.38-.18-29.35-13.53-2.12-4.75-2.92-8.67-6.83-12.63s-12.64-5.24-16.53-9.88c-7.56-9-1.88-20.36-11.95-28.65-20.86-9.53-24.94-32.51-24.75-42.6" transform="translate(-106.61 -13.88)"/><path class="cls-8" d="M307.4,165.22s-55.52,11.47-20.8,110.57c0,0-6.81-71.09,22-85C308.56,190.81,299.16,178.62,307.4,165.22Z" transform="translate(-106.61 -13.88)"/><path class="cls-9" d="M300.15,168.19s-6.7,15.16,4,25.48C304.13,193.67,290.5,187.45,300.15,168.19Z" transform="translate(-106.61 -13.88)"/><path class="cls-9" d="M293.6,174s-6.7,15.16,4,25.48C297.58,199.51,284,193.29,293.6,174Z" transform="translate(-106.61 -13.88)"/><path class="cls-9" d="M287.24,183.38s-6.7,15.15,4,25.48C291.22,208.86,277.59,202.64,287.24,183.38Z" transform="translate(-106.61 -13.88)"/><path class="cls-9" d="M279.7,195.15s-3.41,16.21,9.17,24.1C288.87,219.25,274.25,216,279.7,195.15Z" transform="translate(-106.61 -13.88)"/><path class="cls-9" d="M276,209.69s-.29,15.12,11.34,20.84C287.29,230.53,274.7,229.25,276,209.69Z" transform="translate(-106.61 -13.88)"/><path class="cls-9" d="M277,224.53s-1.16,12.05,9.69,15.92C286.69,240.45,274.65,240.17,277,224.53Z" transform="translate(-106.61 -13.88)"/><path class="cls-9" d="M277.52,239.37s.3,9,9.54,9.79C287.06,249.16,277.22,251.24,277.52,239.37Z" transform="translate(-106.61 -13.88)"/><path class="cls-10" d="M498.86,167.43c4.87-4.88,4.2-19.2,1.49-25.39-4.48-10.24-14.18-15.8-24.5-18.22C464,121,455.06,120,444.77,112.24c-11.57-8.75-14-22-17.82-35.24-7-24.5-36.16-47.45-62.71-35.72-17,7.5-25.37,25.63-41,34.28-12.49,6.91-23,11.19-40.57,6.15,18.51,14.85,50-5.32,63.71-18.94,8.49-8.4,16.53-18.65,28.75-19.78,13.52-1.24,27.34,8.28,35.83,17.85s9.61,26.39,15.61,37.75c6.17,11.7,10.25,17,22.41,22.34,9.83,4.32,30.23,6.61,39.37,13.44,11,8.2,7.52,20.92,5.19,34.26a12.61,12.61,0,0,1-1,3.72" transform="translate(-106.61 -13.88)"/><path class="cls-11" d="M317,157.11c-15.26,11.66-21.4,29.79-12.76,48.24,9.45,20.2,35.14,29.15,49.89,44.69,9.84,10.36,18,20.52,24,33.29,5.66,12.18,10.38,24.13,15.35,36.6,5.14,12.89,10,25.63,14.59,38.84,4.25,12.17,10.6,21.67,16.83,32.72,12.17,21.59,27.46,37.75,49.61,49.4,17.4,9.15,32.24,15.33,52.09,16.47,19.11,1.1,33-7.48,48.53-17.56,14-9.08,29.6-12.73,45.8-10.21,4.37.67,12.06,3.41,16.42,3-11-12.28-26.57-25.8-40.68-35.74-2.32-1.63-9-7.22-11.95-6.94-1.1.1-3.8,3.14-4.93,4.06a37.7,37.7,0,0,1-6.6,4.43c-11.86,6.06-25.61,8.58-38.88,8.37-13.62-.21-30.27-3.68-41.3-12.25-7.73-6-9.6-17.47-13.3-26-7.13-16.5-16-32.34-22.68-49-6.51-16.34-9-32.86-17.95-48.19-4.05-7-7.37-13.49-12.44-19.84-7-8.73-14.83-14.81-22.78-22.49" transform="translate(-106.61 -13.88)"/><path class="cls-12" d="M317,157.11a45.52,45.52,0,0,0-11,12,36.62,36.62,0,0,0-5.33,15.31,37.22,37.22,0,0,0,1.87,16.08,42.45,42.45,0,0,0,8,14.06,75.23,75.23,0,0,0,12,11c4.34,3.29,8.89,6.31,13.41,9.39a160.5,160.5,0,0,1,13.24,9.76,69.68,69.68,0,0,1,6,5.67c1.88,2,3.74,4,5.55,6.07a132.86,132.86,0,0,1,10.14,13,97.74,97.74,0,0,1,8.1,14.35c4.61,9.9,8.75,20.07,12.85,30.2l6.07,15.24c2,5.1,4,10.2,5.85,15.33s3.72,10.31,5.6,15.42a110.69,110.69,0,0,0,6.87,14.74c2.61,4.77,5.44,9.44,8.17,14.19l2,3.55c.69,1.17,1.36,2.38,2.09,3.52,1.4,2.31,2.9,4.58,4.43,6.82a116.45,116.45,0,0,0,21.87,24,113,113,0,0,0,13.26,9.4c2.3,1.42,4.69,2.72,7.07,4s4.85,2.51,7.3,3.7c9.76,4.8,19.94,8.78,30.59,10.81a100.49,100.49,0,0,0,16.12,1.75,53.46,53.46,0,0,0,15.88-2.22c10.36-3.05,19.65-8.93,28.8-14.83,1.18-.76,2.32-1.45,3.5-2.17s2.42-1.41,3.66-2a71.57,71.57,0,0,1,7.6-3.36,64.23,64.23,0,0,1,16.18-3.71c1.38-.18,2.77-.19,4.15-.28s2.78-.06,4.16,0a68.21,68.21,0,0,1,8.29.81c2.78.5,5.39,1.27,8,1.89a28.28,28.28,0,0,0,7.8,1.07l-.61,1.55a217.76,217.76,0,0,0-15.74-15.69q-8.22-7.5-17.08-14.25c-2.92-2.32-5.94-4.37-9-6.64-1.49-1.12-3-2.23-4.47-3.26a19.15,19.15,0,0,0-4.67-2.47,2.67,2.67,0,0,0-1-.11c.06,0-.19.09-.32.18l-.49.36c-.67.54-1.34,1.18-2,1.82l-1,1c-.34.33-.79.67-1.13.94-.72.58-1.48,1.14-2.27,1.69a33.45,33.45,0,0,1-4.93,2.89c-.83.41-1.68.81-2.55,1.18s-1.74.75-2.62,1.1a82,82,0,0,1-21.88,5.19,93.25,93.25,0,0,1-22.46-.44,75.93,75.93,0,0,1-21.6-6.2,47.23,47.23,0,0,1-9.6-6,26.69,26.69,0,0,1-6.58-9.29,112.19,112.19,0,0,1-3.94-10.51c-.6-1.76-1.22-3.5-1.91-5.21s-1.5-3.39-2.24-5.09c-3.05-6.78-6.31-13.45-9.56-20.16s-6.43-13.44-9.31-20.31c-1.44-3.45-2.82-6.9-4-10.45s-2.3-7.09-3.37-10.66a220.87,220.87,0,0,0-7.09-21.12c-2.74-6.91-6.72-13.23-10.35-19.72a92.75,92.75,0,0,0-6.12-9.31c-1.09-1.5-2.34-2.87-3.52-4.32s-2.47-2.77-3.8-4.08c-5.19-5.32-10.88-10.14-16.22-15.33,5.38,5.14,11.11,9.91,16.37,15.19,1.34,1.3,2.56,2.7,3.84,4.06s2.46,2.8,3.57,4.3a93.39,93.39,0,0,1,6.22,9.29c1.91,3.2,3.73,6.44,5.6,9.66a88.89,88.89,0,0,1,5,10c2.92,6.88,5.08,14,7.29,21.13,1.11,3.55,2.23,7.09,3.46,10.6s2.62,6.94,4.09,10.35c2.91,6.83,6.12,13.54,9.39,20.22s6.58,13.36,9.67,20.14c.76,1.71,1.54,3.37,2.28,5.12s1.36,3.5,2,5.26c1.23,3.52,2.39,7,3.94,10.37a25.46,25.46,0,0,0,6.25,8.77,45.6,45.6,0,0,0,9.34,5.74,74.15,74.15,0,0,0,21.2,6,91,91,0,0,0,22.07.32,80.79,80.79,0,0,0,21.42-5.12c.85-.35,1.71-.68,2.54-1.07s1.66-.75,2.5-1.17a31,31,0,0,0,4.69-2.75c.73-.51,1.47-1.05,2.2-1.65a10.71,10.71,0,0,0,1-.84l1-1c.68-.65,1.35-1.31,2.13-1.93a6.58,6.58,0,0,1,.64-.46,3.13,3.13,0,0,1,.93-.43,4,4,0,0,1,1.77.14,19.77,19.77,0,0,1,5.19,2.7c1.57,1.05,3.07,2.19,4.55,3.3,2.94,2.2,6.08,4.33,9,6.64q8.91,6.79,17.22,14.32A219.43,219.43,0,0,1,638,432l1.26,1.4-1.87.15a18.6,18.6,0,0,1-4.32-.27c-1.38-.22-2.74-.51-4.08-.83-2.68-.63-5.32-1.4-7.93-1.86a62.28,62.28,0,0,0-31.77,3.12,67.55,67.55,0,0,0-7.39,3.28c-1.21.59-2.35,1.29-3.52,1.93s-2.35,1.44-3.46,2.16c-4.59,3-9.22,5.94-14.06,8.58a76.64,76.64,0,0,1-15.25,6.5,55.36,55.36,0,0,1-16.48,2.27,102,102,0,0,1-16.45-1.81,105.53,105.53,0,0,1-15.91-4.47,156.19,156.19,0,0,1-15.13-6.55c-2.47-1.21-4.92-2.47-7.33-3.73s-4.84-2.64-7.18-4.08a115.69,115.69,0,0,1-35.62-33.95c-1.54-2.27-3.05-4.57-4.48-6.93-.75-1.16-1.4-2.35-2.1-3.53l-2-3.56c-2.71-4.74-5.53-9.42-8.16-14.25a108.23,108.23,0,0,1-6.93-15c-1.87-5.16-3.6-10.32-5.53-15.44s-3.81-10.23-5.75-15.33l-6-15.26c-4.05-10.16-8.11-20.27-12.67-30.22a98.37,98.37,0,0,0-7.94-14.21,131.85,131.85,0,0,0-10-12.9c-1.78-2.06-3.61-4.07-5.48-6.07a69.35,69.35,0,0,0-5.88-5.62,160.79,160.79,0,0,0-13.07-9.81c-4.49-3.12-9-6.18-13.36-9.54a75.51,75.51,0,0,1-12-11.21,43,43,0,0,1-8-14.31,37.64,37.64,0,0,1-1.75-16.25,36.7,36.7,0,0,1,5.5-15.35A45.52,45.52,0,0,1,317,157.11Z" transform="translate(-106.61 -13.88)"/><path class="cls-6" d="M330.75,143.94c-14.05,9.12-22.88,25.41-16.27,42.38,6,15.3,20.26,26.59,34,34.31,19.66,11,45.52,18.16,60.92,35.12,16.88,18.6,23.92,40.09,31.48,63.42,11,34,13.78,79.58,49.39,98.1a36.33,36.33,0,0,0,20.47,3.55c7.44-.77,13-5.46,20.13-7.61-9.33-4.66-15.41-15.47-22.32-23.31-10.77-12.23-17.81-27-22.47-42.65-10-33.36-14-68-27.11-100.1-5.2-12.7-12.2-24.88-24.18-31.79-10-5.79-21.35-5.75-32.55-7.07-9.95-1.16-20.64-4.5-28.87-10.53-11-8-16.35-18.41-21.84-30.49" transform="translate(-106.61 -13.88)"/><path d="M330.75,143.94a41.7,41.7,0,0,0-15.85,18.54,31.56,31.56,0,0,0-2.43,12,32.24,32.24,0,0,0,2.37,12c3.09,7.65,8.28,14.26,14.31,19.83a102.79,102.79,0,0,0,20.14,14.16c7.24,4,14.79,7.26,22.33,10.66a203.17,203.17,0,0,1,22.17,11.25,86.14,86.14,0,0,1,10.2,7.21,72.25,72.25,0,0,1,8.78,8.89,111.92,111.92,0,0,1,13.7,20.82,183.47,183.47,0,0,1,9.68,22.93c1.38,3.91,2.69,7.84,4,11.77s2.58,7.85,3.72,11.86c2.28,8,4.2,16,6.27,24s4.28,15.93,7.07,23.67a104.43,104.43,0,0,0,10.74,22,63,63,0,0,0,17,17.34l2.57,1.65,2.66,1.49.63.35.7.33,1.41.65c.93.38,1.83.72,2.78,1a37.36,37.36,0,0,0,11.9,1.62c1,0,2-.12,3-.18s2-.31,3-.52a35,35,0,0,0,5.6-2c3.7-1.67,7.37-3.75,11.47-5l-.16,1.79a33.79,33.79,0,0,1-8.4-6.33,86.34,86.34,0,0,1-6.74-7.88c-2.11-2.7-4.14-5.45-6.31-8l-.82-1-.84-1-1.63-2-1.62-2c-.52-.69-1-1.4-1.53-2.11a102,102,0,0,1-10.4-17.86A144.9,144.9,0,0,1,485,346.58l-2.73-9.89c-.92-3.29-1.66-6.65-2.5-10s-1.61-6.66-2.36-10l-2.27-10-2.24-10-2.36-10-.59-2.49-.66-2.47L468,276.83l-1.31-4.95-1.5-4.89-1.51-4.89-.75-2.44-.88-2.4-3.54-9.59a90.34,90.34,0,0,0-9.38-18,46.28,46.28,0,0,0-14.56-13.82l-2.29-1.15a16.61,16.61,0,0,0-2.32-1.06,38.85,38.85,0,0,0-4.78-1.6c-.81-.21-1.62-.46-2.45-.65l-2.5-.49c-1.66-.37-3.36-.52-5-.79-6.75-.87-13.63-1.17-20.35-2.71A69,69,0,0,1,385,204.3c-1.62-.58-3.14-1.38-4.7-2.1-.78-.36-1.51-.82-2.26-1.23a23.44,23.44,0,0,1-2.21-1.32l-2.13-1.45c-.74-.48-1.35-1.06-2-1.59l-2-1.62c-.65-.56-1.24-1.2-1.86-1.79L366,191.39l-1.65-2c-.54-.66-1.14-1.28-1.63-2l-1.49-2.09a110.38,110.38,0,0,1-9.66-18.07,109.23,109.23,0,0,0,9.85,17.94l1.5,2.07c.49.7,1.1,1.31,1.64,2l1.67,1.94L368,193c.62.58,1.2,1.2,1.85,1.75l2,1.6c.67.51,1.32,1.11,2,1.56l2.13,1.4a23,23,0,0,0,2.2,1.29c.75.39,1.48.85,2.25,1.2,1.55.69,3.07,1.47,4.68,2a66.9,66.9,0,0,0,9.77,2.93c6.66,1.46,13.51,1.68,20.32,2.48,1.7.25,3.41.39,5.1.74l2.54.47c.84.18,1.67.43,2.51.64a39.1,39.1,0,0,1,4.94,1.63,16.62,16.62,0,0,1,2.35,1.05l2.3,1.14A47.2,47.2,0,0,1,450.07,229a91.5,91.5,0,0,1,9.62,18.22l3.62,9.63.9,2.42.77,2.45,1.55,4.9,1.54,4.91,1.35,5,1.34,4.95.67,2.48.61,2.5,2.43,10,2.3,10,2.3,10c.75,3.33,1.53,6.66,2.36,10s1.59,6.63,2.51,9.92l2.76,9.88a140.91,140.91,0,0,0,7.1,19.07A99.31,99.31,0,0,0,504,382.67c.49.69,1,1.37,1.48,2.05l1.63,2,1.63,2,.81,1,.84,1c2.23,2.65,4.27,5.39,6.37,8.08a87.11,87.11,0,0,0,6.61,7.69,31.66,31.66,0,0,0,7.91,6l2.12,1.09-2.27.7c-3.84,1.17-7.41,3.2-11.23,4.93a35.14,35.14,0,0,1-6,2.18,14.91,14.91,0,0,1-1.54.3l-.76.13-.39.06-.19,0h-.09l-.16,0c-1.06.06-2.11.18-3.17.19A38.54,38.54,0,0,1,495,420.3c-1-.34-2-.73-3-1.13l-1.4-.66-.7-.33-.73-.4-2.74-1.54-2.65-1.71a65,65,0,0,1-17.47-17.9,106.63,106.63,0,0,1-10.9-22.46c-5.62-15.67-8.8-32-13.29-47.83-1.11-3.95-2.39-7.88-3.67-11.8s-2.58-7.84-4-11.73a188.34,188.34,0,0,0-9.5-22.76,110.69,110.69,0,0,0-13.37-20.6c-1.37-1.56-2.65-3.17-4.11-4.58a59,59,0,0,0-4.46-4.2,84.3,84.3,0,0,0-10-7.15,201.25,201.25,0,0,0-22-11.31c-7.49-3.44-15.09-6.81-22.33-10.83a100.61,100.61,0,0,1-20.19-14.49c-6-5.68-11.23-12.45-14.26-20.2a32.58,32.58,0,0,1-2.28-12.21,31.92,31.92,0,0,1,2.58-12.11A41.86,41.86,0,0,1,330.75,143.94Z" transform="translate(-106.61 -13.88)"/><path class="cls-13" d="M429.82,204c-12,3.83-23.31,10.86-17.28,24.52,1.76,4,5.44,14.27,9.74,16.34,8.27,4,13.12-7.58,18.59,3.54,4.06,8.26-7.45,6.69-6.41,15.64a47,47,0,0,0,6,17.43c4.33,7,11.23,3.38,18,2.18.69,2.29,1.43,4.57,2.05,6.82-7.52,4-12.55,5.17-8.36,14.42,2.92,6.43,4.61,15.2,12.59,13.11,4.5-1.18,4.95-1.87,7.57,2.58,1.75,3,3.44,5.6,1.82,8.55-2.14,3.89-4.68,2.95-4.23,8.52.35,4.4,2.1,8,3.51,12.25,1.3,3.91,2.29,7.47,5.17,10.52,3.72,3.93,4.43,1.64,8.71.74s9.7,7.41,3.71,13c-2.2,4.11,5.2,17.06,7.21,21.48,1.62,3.55,2.47,7.13,5.89,8.52s8.73-.19,12-1.17c3.88,4.93,6.08,15.31,12.57,17.38,10.22,6.47,68.15-5.13,61.73-25.23-2.06-6.64-9-14-13.84-18.72-2.64-2.58-6.08-4.82-8.5-7.45-3-3.19-2.28-5.18-3.17-9.45-3.14-15.25-12.49-30.37-21.12-43.08-8.25-12.16-9-28.15-15.3-41.43-3.3-7-2.77-14.5-5.61-21.85-2.78-7.19-8.16-11.17-12.4-17.18-3.45-4.89-3.59-11.65-6.34-17.09" transform="translate(-106.61 -13.88)"/><path class="cls-14" d="M454.76,171.73c-13-8-19.08-24.17-25.32-37.09-3.21-6.65-5.58-14.61-11.39-19.39A23.61,23.61,0,0,0,394.69,111c-8.22,3-14.38,4.49-22.66,1.48-8.7-3.17-17-2-25.2,2.88-15.28,9-20.71,29.74-15.28,45.93,5.65,16.84,20.55,31.56,35.91,39.11a141,141,0,0,0,21.63,8.94c7.44,2.28,15,2.86,22.88,3.71,10.85,1.17,22-.06,31.57-4.93" transform="translate(-106.61 -13.88)"/><path class="cls-15" d="M449.86,173.37c-3.19-5.6-20.4-14.67-27.2-35.37-4-6.92-21-33.34-60.48-15.35-11.35,5.49-14.16,18.51-14.61,30.08C346.75,173.8,361,194.79,380.36,202c21.78,6.41,54.82,7.62,58.35,6.35" transform="translate(-106.61 -13.88)"/><path class="cls-16" d="M446.17,178.94c-14.27-7.84-20.24-19.52-29-32.92-4.18-6.37-19.26-25.84-36.95-16.47-16.72,13.21-18.11,37-6.88,54.84,9.17,14.54,31.27,17.21,47,18.09,6,.34,11,1.83,16.65,3.36" transform="translate(-106.61 -13.88)"/><path class="cls-17" d="M451.33,231.69c-5.37,1.78-7.63,8.48-5.15,14.11,2.18,5,10.12,8.31,15.23,8.58-4.49,1.09-8.59,5-6.3,9.9s9.35,5,13.77,4.58c-3.44,8-.76,18.12,8.93,18.82-13.76,7.28-4.21,20.56,8.72,17.58-4.19,3.05-7.22,9.75-5.64,15.25,1.8,6.27,7.9,7.66,13,9.38-4.23,1.74-7,8.23-4.54,12.64,2.95,5.37,8.39,2.89,12.65,1.25-4.5,3.47-4.94,14.05-3.33,19.11,2.11,6.65,9.39,7.78,15.75,8.09-6.47,2.59-8.48,14.9-1.84,17.71a16.07,16.07,0,0,0,11.57-.26c3.76-1.66,6.19-4.69,7.12,1.83.61,4.34-2.78,7-1.5,11.35S534,406.77,538,407c8.13.47,16.09-3.12,23.88-5.26,5-1.36,14-4.44,10.9-11.64-1.51-3.49-9.73-8.92-13.37-9.8,4.63,3,10.75.7,9-5.35s-8.46-4.81-12.13-8.38c9.16-9-4.39-21.48-11.37-25.58,11.61-3.57-4.07-14-5-17.61-1.26-5,.25-7.66-3-12.31-2.74-3.91-6.49-7.9-11.1-9.3,3.25-2,7.15-3.82,5.75-9.18-1.12-4.33-6-5.35-9.63-7.41,7.84-5.83,3.2-15.27-3.67-19.92,7.11-6.34.51-12.22-5.73-15.5,10.1-3.88,8.23-20-1.75-22.85" transform="translate(-106.61 -13.88)"/><path class="cls-14" d="M454.71,231.4c0-6.14-8.94-13.65-12.92-17.68-5.48-5.55-10.43-11.25-9-19.67,3-17.78,27.91-29,43.72-32.14,7.84-1.57,16.41-3.17,24.62-1.5,6.65,1.34,17.54,5.87,21.48,11.46,8.6,12.21,3.28,35.91-2.74,47.84-1.45,2.85-2.12,5.32-4.37,7.35s-5.88,3.65-8.4,5.53c-4.89,3.65-9.29,10.19-15.06,12.5-4.65,1.86-10.38-4.51-15.6-6.55-6.25-2.44-13.84-3.45-19.38-6" transform="translate(-106.61 -13.88)"/><path class="cls-10" d="M517.48,261.46c8.19-3.34-7.61-10.66-10-11.61-6.25-2.52-12.65-5.27-18.78-7.84-12.71-5.32-25.35-11.15-38.53-14.64-.75,2.67-3.09,7.37-1.73,9.58,1.59,2.6,7.46,2.41,10.07,3a151,151,0,0,1,21.28,6.51c6.69,2.44,13,6,19.7,8.85,5.32,2.32,13.51,8.76,19.35,6.75" transform="translate(-106.61 -13.88)"/><path class="cls-18" d="M448.68,235.25c1.88,0,3.29-4.26,4.92-5.51.14,2.81-1.53,5.7-1.26,8.55,2-2.26,4.16-5.61,6.77-7.07.71,2.45-.3,5.57.16,8.1,2.59-.87,3.79-4.29,5.57-6.24.43,2.71.35,5.42.73,8,2.26.13,3.73-4.29,5.82-5.34-.32,1.74-.5,7.21,1.6,7.56s4-4,6-4.6c-.07,1.72-.66,6.54,1.15,7.55,2.62,1.48,4.12-3.55,6-4.73,0,1.71-.73,5.4.46,6.71,2,2.19,4.38-1.28,5.71-2.93.24,2.18-.6,6.06,1.71,6.77,2.67.83,4.21-2.88,6-4,0,1.66-.86,6,.74,7.08,2.25,1.52,4.89-3.7,6.42-4.85.2,1.91-1.75,7.49.19,8.88s4.39-3.72,5.42-5.07c0,2-1.18,6.24.49,7.54,1.62-1.18,2.65-3,4.32-4.16" transform="translate(-106.61 -13.88)"/><path class="cls-10" d="M515.36,222.84c-2.56,5.11-35.47,19.52-41.45,24-4.2,3.13-16.44,5.74-14.19,12.79,2.57,8.1,14.87,3.12,19.81.64,6.13-3.08,47.89-29.45,35.8-36.93" transform="translate(-106.61 -13.88)"/><path class="cls-18" d="M460.31,256c2.06,1.92,2.92,5.3,5.06,7.25a44.62,44.62,0,0,0-.26-11.31c1.43,3.07,5,9.45,8.81,9.75.39-3.75.46-9.34-.93-12.78,2.6,1.82,4.07,7.49,7.6,8,1.43.21.64.9,1.56-.77.66-1.18.12-4,.07-5.25-.11-2.59-.39-5.12-.52-7.56,3,3.28,4.77,7.06,8.5,9.88.16-4.6-.42-9.18-.36-13.58,3,1.62,3.41,7.1,7.34,7.64.41-3.79-1.15-7.28-.76-10.75,3,.9,5.09,6,8.35,5.59-.62-3.23-.95-6.62-2-9.59,1.63,1.77,3.45,5.18,5.65,6.39a25.93,25.93,0,0,0-.25-9.28c1.62.62,2.52,3.38,4,4.54a57.33,57.33,0,0,0,0-7.76c1.14,1.08,2.07,2.33,3.26,3.3" transform="translate(-106.61 -13.88)"/><path class="cls-10" d="M524.79,302.62c6.74-3.08-6.18-9.64-8.09-10.49-5.11-2.26-10.34-4.72-15.35-7-10.4-4.76-20.73-10-31.52-13.09-.62,2.43-2.56,6.7-1.46,8.7,1.29,2.35,6.1,2.15,8.24,2.64a114.32,114.32,0,0,1,17.41,5.8c5.47,2.18,10.65,5.33,16.1,7.93,4.35,2.07,11,7.88,15.83,6" transform="translate(-106.61 -13.88)"/><path class="cls-18" d="M468.53,279.18c1.55,0,2.73-3.88,4.06-5,.1,2.55-1.28,5.18-1.07,7.77,1.61-2.06,3.44-5.11,5.59-6.45.57,2.22-.27,5.06.08,7.35,2.13-.8,3.14-3.91,4.6-5.69.34,2.46.26,4.92.56,7.3,1.85.1,3.08-3.91,4.8-4.87-.28,1.58-.45,6.54,1.27,6.85s3.33-3.62,5-4.2c-.07,1.56-.58,5.93.9,6.84,2.14,1.32,3.39-3.25,4.92-4.33,0,1.56-.62,4.91.35,6.09,1.63,2,3.6-1.18,4.7-2.69.18,2-.53,5.5,1.36,6.14,2.18.74,3.47-2.64,4.94-3.65,0,1.5-.74,5.45.57,6.42,1.84,1.37,4-3.39,5.29-4.44.15,1.74-1.47,6.81.11,8.06s3.62-3.4,4.46-4.63c0,1.81-1,5.67.37,6.85,1.33-1.09,2.19-2.77,3.56-3.8" transform="translate(-106.61 -13.88)"/><path class="cls-10" d="M523.25,267.59c-2.12,4.65-29.17,17.88-34.09,22-3.46,2.86-13.5,5.29-11.7,11.68,2.07,7.33,12.18,2.75,16.24.48,5-2.83,39.4-27,29.53-33.69" transform="translate(-106.61 -13.88)"/><path class="cls-18" d="M478,298c1.68,1.73,2.37,4.79,4.11,6.55a44.79,44.79,0,0,0-.15-10.26c1.15,2.78,4,8.54,7.17,8.8.34-3.4.43-8.48-.7-11.59,2.13,1.63,3.31,6.77,6.19,7.24,1.17.18.52.81,1.29-.71.54-1.07.12-3.61.08-4.76-.08-2.35-.29-4.64-.39-6.86,2.45,3,3.87,6.38,6.92,8.92.15-4.17-.3-8.33-.23-12.32,2.43,1.46,2.76,6.43,6,6.9.35-3.44-.91-6.6-.57-9.75,2.47.8,4.14,5.38,6.82,5a68.94,68.94,0,0,0-1.59-8.69c1.32,1.6,2.8,4.68,4.59,5.77a26,26,0,0,0-.15-8.42c1.32.56,2,3.05,3.28,4.1a59.22,59.22,0,0,0,0-7.05c.93,1,1.69,2.11,2.65,3" transform="translate(-106.61 -13.88)"/><path class="cls-10" d="M538.08,339.79c6-4-7-9.24-8.86-9.89-5.07-1.74-10.28-3.67-15.27-5.46-10.34-3.71-20.67-7.9-31.19-9.85-.31,2.58-1.63,7.22-.36,9.16,1.49,2.28,6,1.52,8.06,1.77a100.15,100.15,0,0,1,17.07,4c5.41,1.61,10.64,4.26,16.09,6.31,4.33,1.63,11.3,6.85,15.6,4.38" transform="translate(-106.61 -13.88)"/><path class="cls-18" d="M482.37,322.14c1.45-.21,2.11-4.33,3.23-5.67.4,2.63-.6,5.51-.1,8.15,1.27-2.31,2.64-5.68,4.5-7.32.8,2.23.34,5.27.95,7.59,1.9-1.08,2.49-4.41,3.66-6.42.61,2.5.82,5,1.38,7.48,1.76-.11,2.44-4.4,3.95-5.59-.08,1.66.34,6.81,2,6.93s2.71-4.14,4.19-4.93c.12,1.63.15,6.21,1.65,7,2.17,1.12,2.82-3.75,4.13-5.05.16,1.61,0,5.15,1,6.25,1.76,1.86,3.25-1.63,4.1-3.32.41,2,.15,5.75,2,6.18,2.14.51,3-3.13,4.22-4.35.18,1.55-.06,5.72,1.29,6.57,1.89,1.2,3.39-4,4.46-5.2.34,1.77-.59,7.21,1,8.31s3-3.94,3.66-5.3c.22,1.87-.27,6,1.15,7,1.13-1.27,1.74-3.11,2.91-4.33" transform="translate(-106.61 -13.88)"/><path class="cls-10" d="M532.52,303.77c-1.45,5.05-25.37,21.89-29.52,26.67-2.92,3.37-12.09,7.05-9.64,13.44,2.81,7.34,11.78,1.42,15.33-1.4,4.42-3.51,33.94-32.47,23.86-38.26" transform="translate(-106.61 -13.88)"/><path class="cls-18" d="M493.45,340.45c1.78,1.6,2.79,4.68,4.63,6.29a51.59,51.59,0,0,0-1.34-10.58c1.41,2.74,4.8,8.36,7.78,8.26-.08-3.56-.59-8.81-2-11.9,2.19,1.44,3.89,6.61,6.67,6.76,1.12.05.58.77,1.12-.88.39-1.18-.31-3.75-.48-4.94-.34-2.41-.82-4.76-1.17-7,2.65,2.77,4.4,6.15,7.56,8.42-.34-4.34-1.25-8.58-1.66-12.71,2.46,1.23,3.35,6.32,6.44,6.43-.07-3.6-1.63-6.72-1.68-10,2.42.54,4.53,5.08,7,4.4a75.72,75.72,0,0,0-2.52-8.79c1.43,1.49,3.18,4.51,5,5.42a29.57,29.57,0,0,0-1.14-8.68c1.31.42,2.29,2.91,3.57,3.85a65.86,65.86,0,0,0-.83-7.28c1,.9,1.84,2,2.85,2.78" transform="translate(-106.61 -13.88)"/><path class="cls-10" d="M558.51,376.19c5.69-4.36-7.56-8.72-9.51-9.23-5.18-1.38-10.51-2.95-15.6-4.39-10.58-3-21.17-6.44-31.8-7.65-.13,2.59-1.13,7.3.27,9.15,1.64,2.16,6.08,1.09,8.16,1.19a101.3,101.3,0,0,1,17.3,2.77c5.51,1.24,10.92,3.51,16.48,5.18,4.44,1.33,11.75,6,15.87,3.29" transform="translate(-106.61 -13.88)"/><path class="cls-18" d="M501.73,362.46c1.43-.31,1.81-4.46,2.84-5.86.57,2.58-.22,5.52.46,8.12,1.1-2.39,2.24-5.84,4-7.6,1,2.17.69,5.22,1.46,7.49,1.82-1.2,2.18-4.56,3.21-6.65.78,2.45,1.17,5,1.89,7.36,1.74-.23,2.13-4.55,3.55-5.84,0,1.66.81,6.76,2.47,6.76s2.42-4.3,3.84-5.19c.23,1.61.58,6.16,2.12,6.82,2.25,1,2.56-3.93,3.78-5.31.27,1.59.34,5.12,1.46,6.15,1.89,1.73,3.13-1.85,3.87-3.59.54,2,.54,5.71,2.42,6,2.17.35,2.73-3.32,3.92-4.63.28,1.54.33,5.7,1.73,6.45,2,1.07,3.11-4.18,4.09-5.48.46,1.74-.09,7.21,1.61,8.2s2.74-4.13,3.29-5.53c.35,1.85.14,6,1.63,6.92,1-1.35,1.52-3.22,2.6-4.52" transform="translate(-106.61 -13.88)"/><path class="cls-10" d="M550.5,340.72c-1.1,5.13-23.8,23.54-27.62,28.59-2.68,3.55-11.58,7.84-8.7,14,3.3,7.11,11.85.6,15.2-2.45,4.17-3.8,31.63-34.66,21.18-39.73" transform="translate(-106.61 -13.88)"/><path class="cls-18" d="M514,379.93c1.9,1.46,3.11,4.46,5.06,5.94A50.29,50.29,0,0,0,517,375.43c1.6,2.63,5.37,8,8.33,7.68-.33-3.53-1.19-8.73-2.82-11.71,2.28,1.29,4.34,6.32,7.12,6.27,1.12,0,.63.74,1.06-.95.3-1.2-.57-3.71-.82-4.88-.51-2.38-1.14-4.68-1.65-6.93,2.84,2.58,4.81,5.82,8.12,7.86-.64-4.29-1.84-8.45-2.52-12.53,2.53,1.05,3.77,6.06,6.86,5.95-.32-3.57-2.09-6.57-2.36-9.85,2.45.38,4.86,4.74,7.29,3.9a77.84,77.84,0,0,0-3.11-8.57c1.52,1.38,3.48,4.27,5.36,5.05a29.79,29.79,0,0,0-1.72-8.56c1.33.32,2.48,2.74,3.82,3.58a65.73,65.73,0,0,0-1.32-7.19c1.05.83,2,1.84,3,2.57" transform="translate(-106.61 -13.88)"/><path class="cls-19" d="M442,226.58a7,7,0,1,1-6.56-7.35A7,7,0,0,1,442,226.58Z" transform="translate(-106.61 -13.88)"/><path class="cls-8" d="M637.41,485.44s-150.16,31-231.46-55.2c0,0,20.43,104.49,174.93,106.35C580.88,536.59,643.76,523.87,637.41,485.44Z" transform="translate(-106.61 -13.88)"/><path class="cls-20" d="M421.4,465.7s4.74-1.29,13.81-10.48A23.74,23.74,0,0,1,421.4,465.7Z" transform="translate(-106.61 -13.88)"/><path class="cls-20" d="M425.51,468.65s4.73-1.28,13.8-10.48A23.7,23.7,0,0,1,425.51,468.65Z" transform="translate(-106.61 -13.88)"/><path class="cls-20" d="M429.18,472.36s4.73-1.29,13.81-10.48A23.7,23.7,0,0,1,429.18,472.36Z" transform="translate(-106.61 -13.88)"/><path class="cls-20" d="M432,478s5.84-1.55,17-12.63C449,465.33,444.16,474.43,432,478Z" transform="translate(-106.61 -13.88)"/><path class="cls-20" d="M435.53,483.6s7.09-1.79,20.65-14.75C456.18,468.85,450.32,479.5,435.53,483.6Z" transform="translate(-106.61 -13.88)"/><path class="cls-20" d="M441.78,489.78s8.21-2.21,24-18C465.73,471.73,458.91,484.73,441.78,489.78Z" transform="translate(-106.61 -13.88)"/><path class="cls-20" d="M451.1,496.53s9-2.48,26.41-20.24C477.51,476.29,470,490.86,451.1,496.53Z" transform="translate(-106.61 -13.88)"/><path class="cls-20" d="M463.84,504.64s9.89-2.7,28.85-22C492.69,482.6,484.47,498.47,463.84,504.64Z" transform="translate(-106.61 -13.88)"/><path class="cls-20" d="M477,511.61s11.27-2.94,32.85-24.15C509.89,487.46,500.56,504.88,477,511.61Z" transform="translate(-106.61 -13.88)"/><path class="cls-20" d="M491.79,518.67s12.81-3.45,37.35-28.16C529.14,490.51,518.51,510.8,491.79,518.67Z" transform="translate(-106.61 -13.88)"/><path class="cls-20" d="M508.17,524.27s13.93-3.81,40.62-31.08C548.79,493.19,537.22,515.57,508.17,524.27Z" transform="translate(-106.61 -13.88)"/><path class="cls-20" d="M528,530.46s15.48-4.48,45.2-36.26C573.21,494.2,560.3,520.25,528,530.46Z" transform="translate(-106.61 -13.88)"/><path class="cls-20" d="M552.68,533.81s16.47-5.06,48.17-40.75C600.85,493.06,587,522.28,552.68,533.81Z" transform="translate(-106.61 -13.88)"/><path class="cls-20" d="M580.47,537s17.9-6.79,50.57-48.77C631,488.19,617.76,521.71,580.47,537Z" transform="translate(-106.61 -13.88)"/><path class="cls-13" d="M547.67,536.2c20.06-7.05,38.12-8.7,55.49-21.24s29.68-33.68,46.26-43.14c15-8.56,40.32-15.64,48.53,5.68a10.94,10.94,0,0,1,.61,6.81c-20.22-.14-38-3.31-49.68,15.43-10.21,16.45-20.64,31.23-40.27,36.15-20.17,5.05-40,2.73-60.32.34" transform="translate(-106.61 -13.88)"/><path class="cls-21" d="M653.21,499.77l.32-.5a5,5,0,0,1,1.17-1.3l.54-.35a2.9,2.9,0,0,1,1.57-.26,4.32,4.32,0,0,1,.87.31,8.16,8.16,0,0,1,2.55,2.58,15.9,15.9,0,0,0,2.13,2.8,6.82,6.82,0,0,0,.77.6,3.72,3.72,0,0,0,.73.44,3.49,3.49,0,0,0,1.8.4,8,8,0,0,0,4-1.64c.65-.43,1.3-.9,2-1.34a9.57,9.57,0,0,1,1.1-.62,5.76,5.76,0,0,1,1.15-.48,6.45,6.45,0,0,1,2.65-.32,6.76,6.76,0,0,1,2.54.81,6.91,6.91,0,0,1,1.11.69l.26.19.13.1,0,0,0,0c-.06-.06.09.09.08.07l0,.06.42.4a7.57,7.57,0,0,1,.86,1.05c.26.38.44.72.66,1.08.39.67.71,1.34,1,1.89a4.79,4.79,0,0,0,.51.74l.25.33.28.25.13.13.07.06-.09-.05h0l0,0,.44.25c.17.11.2,0,.3.1s.14.08.28.08a4.84,4.84,0,0,0,1.53,0c1.07-.08,2.15-.35,3.18-.45a4.6,4.6,0,0,1,2.76.4,3.1,3.1,0,0,1,1.21,1.35c.14.38.22.57.22.57l-.2.11-.38-.42a2.33,2.33,0,0,0-1.19-.75,4.09,4.09,0,0,0-2.15.24c-.87.27-1.88.7-3.15,1a6.7,6.7,0,0,1-2.15.16,4.53,4.53,0,0,1-1.29-.33l-.46-.22-.05,0h0l-.12-.07-.13-.09-.25-.2-.52-.42c-.15-.16-.28-.32-.42-.49a6.48,6.48,0,0,1-.71-1,22.19,22.19,0,0,1-1.05-2c-.16-.3-.32-.65-.48-.91a4.25,4.25,0,0,0-.54-.78l-.38-.44,0-.06.06.06h0l0,0-.1-.09-.19-.17a6.25,6.25,0,0,0-.83-.63,5.67,5.67,0,0,0-3.88-1,4.89,4.89,0,0,0-1.11.23,7.32,7.32,0,0,0-1,.41,20.82,20.82,0,0,0-2,1.17,15.55,15.55,0,0,1-4.22,2.26,4.62,4.62,0,0,1-2.5,0,5,5,0,0,1-1.2-.45,9,9,0,0,1-.93-.57,11.45,11.45,0,0,1-2.58-3.36,8.75,8.75,0,0,0-1.71-2.35,1.6,1.6,0,0,0-1.74-.17,6.07,6.07,0,0,0-1.33.77l-.48.33Z" transform="translate(-106.61 -13.88)"/><path class="cls-21" d="M645.75,511.29l.33-.5a5,5,0,0,1,1.17-1.3,6.34,6.34,0,0,1,.54-.35,4.22,4.22,0,0,1,.71-.24,3.56,3.56,0,0,1,.87,0,4.89,4.89,0,0,1,.86.3,8.3,8.3,0,0,1,2.55,2.59,15.8,15.8,0,0,0,2.13,2.79,6,6,0,0,0,.77.61,3.72,3.72,0,0,0,.73.44,3.56,3.56,0,0,0,1.8.4,8.14,8.14,0,0,0,4-1.64c.66-.43,1.3-.91,2-1.34a9.57,9.57,0,0,1,1.1-.62,6.41,6.41,0,0,1,1.15-.49,6.62,6.62,0,0,1,2.65-.32,7.14,7.14,0,0,1,2.54.81,7,7,0,0,1,1.11.7l.26.19.13.1,0,0h0c-.06,0,.09.09.08.08l.05,0,.42.41a7.57,7.57,0,0,1,.86,1c.26.38.44.72.66,1.07.39.68.71,1.35,1,1.9a4.79,4.79,0,0,0,.51.74l.25.33.28.25.13.13.07.06-.09,0h0l0,0,.05,0,.44.25c.17.1.2,0,.3.1s.14.07.28.08a4.84,4.84,0,0,0,1.53.05c1.07-.08,2.15-.36,3.17-.45a4.47,4.47,0,0,1,2.77.4,3.05,3.05,0,0,1,1.21,1.35c.14.38.22.57.22.57l-.2.11-.38-.42a2.33,2.33,0,0,0-1.19-.75,4.09,4.09,0,0,0-2.15.24c-.87.27-1.87.7-3.15,1a6.7,6.7,0,0,1-2.15.16,4.89,4.89,0,0,1-1.29-.33l-.46-.22,0,0h-.05l-.12-.07-.13-.1-.25-.2-.52-.41c-.15-.16-.28-.32-.42-.49a6.12,6.12,0,0,1-.71-1,22.07,22.07,0,0,1-1-2c-.16-.3-.32-.65-.48-.91a4.65,4.65,0,0,0-.54-.79l-.38-.43-.05-.06.06.06v0l0,0-.1-.08-.19-.17a6.25,6.25,0,0,0-.83-.63,5.67,5.67,0,0,0-3.88-1,4.89,4.89,0,0,0-1.11.23,7.32,7.32,0,0,0-1,.41,19.7,19.7,0,0,0-2,1.17,15.4,15.4,0,0,1-4.22,2.26,4.71,4.71,0,0,1-2.5,0,5.46,5.46,0,0,1-1.2-.45,8,8,0,0,1-.93-.58,11.2,11.2,0,0,1-2.58-3.36,8.63,8.63,0,0,0-1.71-2.34,1.6,1.6,0,0,0-1.75-.17,5.82,5.82,0,0,0-1.32.77l-.48.33Z" transform="translate(-106.61 -13.88)"/><path class="cls-21" d="M638.32,522.46l.3-.49a5,5,0,0,1,1.11-1.27l.52-.34a3.1,3.1,0,0,1,.69-.23,2.89,2.89,0,0,1,.84,0,4,4,0,0,1,.84.3,7.74,7.74,0,0,1,2.43,2.5c.33.49.66,1,1,1.47a7.43,7.43,0,0,0,1,1.22,6.74,6.74,0,0,0,.74.6,3.54,3.54,0,0,0,.68.42,3.22,3.22,0,0,0,1.7.41,7.56,7.56,0,0,0,3.84-1.58c.63-.42,1.24-.88,1.9-1.31a8.77,8.77,0,0,1,1.05-.61,5.87,5.87,0,0,1,1.1-.48,6.19,6.19,0,0,1,2.56-.32,6.53,6.53,0,0,1,2.45.79,7,7,0,0,1,1,.68l.26.19.12.09,0,0h0l.08.08,0,0,.4.4a7.26,7.26,0,0,1,.82,1c.25.37.41.69.62,1,.37.66.67,1.3,1,1.83a4.61,4.61,0,0,0,.48.71l.23.33.26.23.13.12.06.06v0l-.09,0h0l.06,0,.41.24c.17.11.21.07.29.11s.13.07.25.08a4.57,4.57,0,0,0,1.44.05c1-.08,2.06-.34,3-.43a4.26,4.26,0,0,1,2.67.39,2.89,2.89,0,0,1,1.14,1.33l.21.55-.2.1-.36-.4a2.27,2.27,0,0,0-1.14-.72,3.82,3.82,0,0,0-2,.25c-.83.26-1.78.68-3,1a6.61,6.61,0,0,1-2.09.16,5.2,5.2,0,0,1-1.25-.34l-.43-.21-.05,0h0l-.11-.07,0,0-.12-.1-.25-.2-.49-.41-.4-.47a5.64,5.64,0,0,1-.67-1c-.39-.68-.7-1.33-1-2-.15-.29-.3-.62-.45-.87a3.59,3.59,0,0,0-.5-.75l-.36-.43,0,0s-.07-.08.06,0h0l0,0-.1-.08-.18-.16a4.56,4.56,0,0,0-.78-.61,5.18,5.18,0,0,0-4.74-.79,7.79,7.79,0,0,0-1,.39,18.2,18.2,0,0,0-1.94,1.14,14.49,14.49,0,0,1-4,2.21,4.42,4.42,0,0,1-2.42,0,4.81,4.81,0,0,1-1.15-.45,9.38,9.38,0,0,1-.89-.55,11.05,11.05,0,0,1-2.44-3.27,8.27,8.27,0,0,0-1.6-2.25,1.47,1.47,0,0,0-1.63-.17,5.66,5.66,0,0,0-1.26.74l-.47.32Z" transform="translate(-106.61 -13.88)"/><path class="cls-21" d="M630.35,533.19l.29-.45a4.51,4.51,0,0,1,1.05-1.19l.49-.32a5,5,0,0,1,.65-.21,2.92,2.92,0,0,1,.79,0,4,4,0,0,1,.8.27,7.37,7.37,0,0,1,2.34,2.31,13.92,13.92,0,0,0,1.91,2.45,5.49,5.49,0,0,0,.68.54,3.28,3.28,0,0,0,.64.38,3.08,3.08,0,0,0,1.58.38,7,7,0,0,0,3.61-1.42c.59-.38,1.16-.8,1.79-1.19a7.27,7.27,0,0,1,1-.56,5.25,5.25,0,0,1,1-.44,5.93,5.93,0,0,1,2.4-.31,6.41,6.41,0,0,1,2.31.71,5.08,5.08,0,0,1,1,.62l.24.17.12.08.06,0,.12.11.38.36a6.84,6.84,0,0,1,.79,1c.24.35.41.65.61,1,.35.6.64,1.2.94,1.68a3.61,3.61,0,0,0,.45.64,3,3,0,0,0,.22.28l.24.21.11.11,0,0h0l-.09,0h0l.1,0,.39.22c.24.08.26.09.49.15a4.22,4.22,0,0,0,1.34.06c1-.07,1.93-.3,2.85-.37a4.2,4.2,0,0,1,2.51.39,2.74,2.74,0,0,1,1.09,1.24c.13.33.19.51.19.51l-.2.11-.34-.37a2.15,2.15,0,0,0-1.08-.63,3.94,3.94,0,0,0-1.9.25c-.78.25-1.67.64-2.82.92a6.65,6.65,0,0,1-2,.16,5,5,0,0,1-1.2-.3l-.41-.19-.1,0h0l-.12-.06,0,0-.06,0-.24-.18-.48-.38c-.14-.14-.26-.29-.39-.43a5.55,5.55,0,0,1-.66-.94,20.15,20.15,0,0,1-.95-1.83c-.14-.27-.29-.58-.43-.8a3.53,3.53,0,0,0-.47-.69l-.34-.39,0,0h0l.06.06,0,0-.09-.07-.17-.15a5.45,5.45,0,0,0-.73-.56,5.16,5.16,0,0,0-3.42-1,4.37,4.37,0,0,0-1,.19,6.61,6.61,0,0,0-.93.34,17.43,17.43,0,0,0-1.83,1,14.89,14.89,0,0,1-3.8,2,4.27,4.27,0,0,1-2.27.05,4.45,4.45,0,0,1-1.09-.39,6.3,6.3,0,0,1-.86-.51,9.46,9.46,0,0,1-2.35-3,8.41,8.41,0,0,0-1.51-2.08,1.41,1.41,0,0,0-1.51-.18,4.89,4.89,0,0,0-1.2.65l-.44.28Z" transform="translate(-106.61 -13.88)"/><path class="cls-21" d="M622.45,543.44l.24-.37a4.53,4.53,0,0,1,.85-1,2.19,2.19,0,0,1,.89-.45,1.77,1.77,0,0,1,.61,0,2.63,2.63,0,0,1,.6.25,6,6,0,0,1,1.72,2,16.2,16.2,0,0,0,1.53,2.36l.57.51a4.65,4.65,0,0,0,.57.37,2.46,2.46,0,0,0,1.42.31,6.08,6.08,0,0,0,3-1.45c.48-.35,1-.74,1.47-1.09a6.71,6.71,0,0,1,.79-.51,5.45,5.45,0,0,1,.85-.37,4.36,4.36,0,0,1,2-.22,5.07,5.07,0,0,1,1.82.72,4,4,0,0,1,.77.57l.19.15.12.12.07.08.29.33a5.75,5.75,0,0,1,.56.81c.17.28.29.54.44.81a11,11,0,0,0,1.49,2.7,2.32,2.32,0,0,0,2.2.67c.82-.11,1.62-.39,2.38-.5a3,3,0,0,1,2,.21,2.27,2.27,0,0,1,.84,1l.17.42-.11,0s-.08-.13-.24-.36a2,2,0,0,0-.86-.72,2.62,2.62,0,0,0-1.68.1,24.06,24.06,0,0,1-2.38.77,4.41,4.41,0,0,1-1.6.07,3.31,3.31,0,0,1-.85-.31l-.16-.1-.09,0a.53.53,0,0,1-.14-.11l-.34-.31a9,9,0,0,1-1.73-3c-.12-.24-.23-.51-.35-.74a4.11,4.11,0,0,0-.41-.66l-.27-.35-.07-.08,0,0-.15-.14a5.25,5.25,0,0,0-.62-.53,3.72,3.72,0,0,0-3-.75,8.23,8.23,0,0,0-3.09,1.66,9.35,9.35,0,0,1-3.13,1.78,3.18,3.18,0,0,1-1.83-.14,4.92,4.92,0,0,1-.83-.41c-.23-.18-.4-.3-.65-.51a10.92,10.92,0,0,1-1.69-2.61,6.54,6.54,0,0,0-1.3-1.89,1.2,1.2,0,0,0-1.43,0,4.81,4.81,0,0,0-.94.73l-.33.3Z" transform="translate(-106.61 -13.88)"/><path class="cls-21" d="M614,552l.15-.31a3.56,3.56,0,0,1,.54-.81,1.69,1.69,0,0,1,.67-.43,1.08,1.08,0,0,1,.51,0,1.45,1.45,0,0,1,.49.22,4.61,4.61,0,0,1,1.22,1.64,20.34,20.34,0,0,0,1,1.86,2.14,2.14,0,0,0,1.65,1.08,3.76,3.76,0,0,0,2.15-1.15l1-.91c.18-.16.34-.29.57-.46a4.27,4.27,0,0,1,.6-.34,2.92,2.92,0,0,1,1.54-.24,3.35,3.35,0,0,1,1.39.64,3.29,3.29,0,0,1,.56.48l.14.13c.1.12.08.11.13.17l.2.27a4.85,4.85,0,0,1,.39.65c.11.22.19.42.29.63a13.79,13.79,0,0,0,.94,2.13,2,2,0,0,1,.24.29c.14.1.33.25.38.24a1.41,1.41,0,0,0,.74.08c.58-.08,1.17-.31,1.75-.42a2,2,0,0,1,1.59.21,1.45,1.45,0,0,1,.38.48,1.29,1.29,0,0,1,.17.39l.09.33-.11,0-.17-.28a1.38,1.38,0,0,0-.23-.29,1.22,1.22,0,0,0-.36-.27,1.52,1.52,0,0,0-1.17.12,12.64,12.64,0,0,1-1.77.69,2.37,2.37,0,0,1-1.34,0,2.18,2.18,0,0,1-.58-.3,5.67,5.67,0,0,1-.55-.55,9,9,0,0,1-1.09-2.41c-.07-.18-.14-.39-.21-.56a3.88,3.88,0,0,0-.25-.5l-.19-.28s-.09-.14-.06-.1l-.1-.11a4.16,4.16,0,0,0-.42-.42,2.19,2.19,0,0,0-2.08-.62,4.77,4.77,0,0,0-.62.23c-.15.09-.36.2-.54.33-.36.25-.71.54-1.05.83a6.09,6.09,0,0,1-2.29,1.5,2.67,2.67,0,0,1-2.5-1.06,9.66,9.66,0,0,1-1.09-2.06,5.45,5.45,0,0,0-.82-1.47c-.27-.29-.57-.18-.91,0-.14.12-.28.21-.39.3l-.28.29-.24.23Z" transform="translate(-106.61 -13.88)"/><path class="cls-22" d="M630.87,487.79S487,513.73,406,430.24C406,430.24,461.7,521.8,630.87,487.79Z" transform="translate(-106.61 -13.88)"/><path class="cls-22" d="M287.14,276.6s-5.35-59.16,13.53-80.22C300.67,196.38,272.58,205.65,287.14,276.6Z" transform="translate(-106.61 -13.88)"/><path class="cls-10" d="M435.73,223.56c-22.82,6.35-50.68,3.7-70.19-11.24-14.38-11-24.55-25.06-32.29-41.14-6.95-14.45-10.57-31-22.14-42.73-23.07-23.3-54.75-10.2-70.32,13.92-15.19,23.55-17.12,53.83-48.68,58.69-21.54,3.31-42.59.05-54.85,21.14-9.31,16-1.08,32.1,9.74,45.84,8.22,10.42,11.42,22,5.32,35.82-4.89,11.11-16.47,15.12-16,28.65,6.2-13,17.58-22.26,23.32-35,6.29-14-1.31-22.36-8.54-34.3-7-11.66-14.77-28.86-6.09-41.12,8.91-12.61,27.73-9.75,41.25-12.93,13.24-3.11,27.28-7,35.64-17.95,9.13-11.94,13.51-26.91,22.88-39.15,8.73-11.39,20.91-28.15,35.86-29.22C330.9,113.46,322,228.37,402.82,231.33c5.95.57,39.18.7,35.56-7.64a2.61,2.61,0,0,0-.06-1.61c-.86-.27-1.63-.08-2.49-.27" transform="translate(-106.61 -13.88)"/><path class="cls-18" d="M136.6,325.39a4,4,0,0,0,2.56.57c-1-1.13-.75-2.47-1.25-3.6,1.39.2,2.39-.56,3.61-.53-.84-1.22-.31-2.4-.72-3.56,1.62.4,3.2-.4,4.66-.45-.47-1-.3-2.64-1.11-3.71,2.55.19,4.89-1.32,4-4,1.72.26,2.46-.66,3.64-.78-.37-.46-.73-1.19-1.12-1.67,1.36-1.35,3.45-2,5.34-2.9-1.16-.69-2-2.16-3.16-2.84a12.12,12.12,0,0,0,5.35-2.88c-1.12-.94-1.9-2.08-3.59-2.46,1.56-1.07,3.51-2.55,5.31-3.71a6.67,6.67,0,0,1-5.49-2.42c2.2-1.25,4.18-3.35,6-5-2.28-.3-4.72-.14-6.75-1,1.47-2.31,3-4.89,4.57-7.14a14.24,14.24,0,0,1-5.67-1,35.56,35.56,0,0,0,2.68-5.09,53.87,53.87,0,0,1-5.55-.36c-.7-1.92.31-3.94,1.23-5.61a27.29,27.29,0,0,0-5.64-1,27.82,27.82,0,0,0,2.23-4.47,18,18,0,0,0-7.1-1c.6-1.26,3.83-3.68,3.31-5.19-.68-2-5.28-1.1-6.86-2.49l4.55-2.91c-1.63-2.36-5-1.19-6.71-3.49,10.77-.67,1.91-6.48.06-10.08,1.32,0,2.38-.95,3.62-1.06.69-2.86-.6-5.65-2.06-7.88,1,.28,2.54-.21,3.58,0a16.88,16.88,0,0,0-.33-7.95,9.78,9.78,0,0,1,4.32,2.92c.27-2.23.31-4.56.58-6.77.77.67,2.56,1.51,3.39,2.59.18-2.25.12-4.59,1.1-6.6.46,1,2.2,2.31,2.89,3.39a16.76,16.76,0,0,0,2.06-6.31c1,1.54,2.21,3.45,3.82,4.37.07-1.92.86-3,1.92-4.4.82,2,2.13,2.36,3.45,3.09.16-1.41,1.27-2.75,1.52-4a12.62,12.62,0,0,0,3.28,3.78c0-1.67,1-3,1.39-4.42a15.84,15.84,0,0,0,3.91,4.2A53.08,53.08,0,0,1,175,204a6.48,6.48,0,0,0,4.09,3c.37-1.36,1.59-3,1.84-4.42,1,1.1,2.91,2.25,3.82,3.28.25-1,1.25-1.88,1.43-3,1.6,1.36,2.82,3,5,3.33-.06-.93.39-2.1.33-3a9.46,9.46,0,0,0,4.5,2.25c-.16-1.43.59-3.19.42-4.61,1.59.53,3.4,1.16,5,1.76-.61-5.85,3.82-1.8,7-2.28-.36-.93-.08-2.54-.72-3.6,4.56.46,7.26-.32,4.69-5.16a14.73,14.73,0,0,0,6.64-.21c-.36-1.44-.42-3.29-1.18-4.67,2.15.28,4.51.48,5.89-.82a14.22,14.22,0,0,1-2.37-4.77,16.62,16.62,0,0,1,5.21-1,17,17,0,0,0-1.71-4.71,22.76,22.76,0,0,0,4.68-1c-.27-1.44-.33-3.27-1.18-4.67,5.17,1.44,3.59-3.64,2.1-6.37,1.58.3,3.16.1,4.6.62a47.19,47.19,0,0,0-3.27-7.84,22.15,22.15,0,0,1,7.29.79,55.08,55.08,0,0,1-1-7.37l5,1.72c.68-2.83-.08-5.9-.83-8.5a10.78,10.78,0,0,1,4.43,2.48c2.08-1.74,1.39-6.57,1.7-9.49.78.87,2.65,1.48,3.53,2.37,1.62-1.67,1.08-4.23,1.9-6.31.55.75,2.35,1.83,3,2.73a69.17,69.17,0,0,1,2.13-8.28c1.45,1,2.68,2.74,4.08,3.87,1.18-2.67,1.51-6.26,3.53-8.2.31,1.82,1.47,2.62,2.53,3.87,1.41-1.93,2.49-4.72,4.78-6.61,2.51,5.58,4.42,1.11,8.41-.61.45,5.56,4.2,3.23,6.87.52,0,1.3,1.18,2.76,1.35,3.69a19.79,19.79,0,0,1,6-2.87c-.34,1.2.21,2.9-.08,4.11,2.42.61,4.86,0,7.16,0-.48,1-.11,2.07-.42,3,2,.23,4.18.27,6.21.54-.73.9-.64,2.56-1.14,3.43a11.13,11.13,0,0,0,5.12,1,32.43,32.43,0,0,0-1.74,5c1.48-.14,2.67.87,4,.94-.41,1.14,0,2.93-.62,4,1.66,0,3.5.49,5.15.47-.68,1.34-.28,3-.64,4.57.49.15.93.08,1.42.24-.4,1.22-.08,2.92-.6,4.06,1-.18,2.48.49,3.53.36-.6,2.53-.6,5.2,2.36,5.46-.56.77-.9,2.6-1.67,3.45,5.2-.28.45,4.14,4.91,5.13-.48.83-.22,1.74-.54,2.56.74-.06,1.74.35,2.49.31-.41.79-.21,2.18-.56,3a12.88,12.88,0,0,1,1.95.27c-.44,2.58-.77,5.32,2.35,5.44-.44,3.32,2.95,3.68,1.86,7.39a19.14,19.14,0,0,1,4.55,1.51c-.37.52-.57,1.87-1.09,2.48,1.74,1.65,1.21,1.21,2,3.22,1.45.05,2.12,1,3.11,1.29-.44.52-.82,1.52-1.2,2,2.74.33,4.21,1.93,3,4.43.9-.09,2.11.42,3,.33a7.21,7.21,0,0,1,0,2,7.06,7.06,0,0,1,2,.27c-.23.87.18,2.16,0,3,.88-.13,2.14.46,3,.33a14.93,14.93,0,0,1,0,2.5,10.65,10.65,0,0,1,1.95.27c-.19.89.18,2.14,0,3,1.5-.17,3.36,0,4.69-.65-.6,1-.69,2.61-1.15,3.51,1-.44,2.43-.32,3.64-1.12-.4,1-.18,2.92-.59,4,.55-.28,1.83-.4,2.54-.79-.49,1.2-.25,2.42-.58,3.57.72-.62,2.36-1.08,3.1-1.84-.17,1.09.21,2.52,0,3.6.9-.62,2.85-1.69,3.68-2.87-.25,1.25.16,2.88,0,4.14,1-.41,2.12,0,3.12-.31s1.83-1.62,3.07-1.72a36.52,36.52,0,0,0-.75,4.88c1.17-1,2.35-2.07,3.47-3.14.33,1.24.6,2.53.92,3.72,1.54.45,2.72-2.16,3.69-3.06.38,1.18.59,4.33,1.87,5,1.54.81,2-2.45,3.34-3.16a38.42,38.42,0,0,0,2.4,4.22c1.12-.72,1.74-3,2.93-2.34s1.12,3,2.26,3.82c1.12-1.24,1.61-3,2.42-4.38.87,1.58,1.58,3.35,2.94,4.57a12.08,12.08,0,0,0,2.35-3.58c1.36.2.92,2.62,2.09,3,.92.28,2-1.65,2.13-2.57.71.79,1,2.37,2.27,2.57a19.33,19.33,0,0,0,1.93-3,7.87,7.87,0,0,0,2,3.27c.6-1.1,1.16-2.31,1.83-3.4.66.92,1.29,2.39,2.22,3.09a11.91,11.91,0,0,0,1.63-3.17c.62,1.11,1.31,2.76,2.44,3.42.4-1.06,1-3.4,1.85-3.89.31.75,1.08,3.57,2.28,3.44,1-.1,1-3.06,1.27-3.82.79.8,1.18,2.56,2.68,2.42.14-1.32,0-3.05.39-4.2.53,1.06.76,2.82,2,3.09a19.78,19.78,0,0,0,.16-3.32c.33.85.72,1.87,1.5,2.18.11-1,.48-2.5-.33-3" transform="translate(-106.61 -13.88)"/><path class="cls-3" d="M288.35,82.44a4.32,4.32,0,0,0,.29,3.08c.52-.65,1.8-1.48,2.32-2.42a5.41,5.41,0,0,0,1.45,3.11c.3-.69,1.41-1.87,1.6-2.64.65,3,3.55,4.52,3.95.72a2.53,2.53,0,0,0,2.91,2.31c.1-.93.92-1.8,1.08-2.54,2.2,2.91,3.63.88,4.38-1.72,1.45,2.65,4.47,3.84,3.89-.55,1.56,3.69,3.64,1.47,3.58-1.74,1.82,2,4.56,2.27,4-1.33,1.89,3.15,4.24,1.76,4-1.7.34.38,1.83,1.12,2.2,1.6a7.3,7.3,0,0,0,1-4.43c.38.92,1.37,1.6,1.84,2.34,1-1.14,1.1-2.94,1.11-4.61,1.89,5.23,3.95,1.22,4-2.4.36,1,1.54,2,2,2.66A16.18,16.18,0,0,0,335.06,67c.62,1.48,1.32,1.21,2.18,1.87.16-1.46.22-3,.3-4.45.51,1.31,1.41,1.62,2.15,2.27.22-2,.31-4,.39-6a11.1,11.1,0,0,0,2.91,3.9c.76-1.89.56-4.3.82-6.4.72,1.14,1.38,2.29,2.17,3.37a27.87,27.87,0,0,0,1.13-6.77c.66.92,1.39,1.91,2.11,2.88,1.32-1.72,1.18-4.45,2.32-6.4-.17,1.51,1,3.17,2.52,2,.8-.6.83-4.66,1.06-5.68a9,9,0,0,0,2.25,3.16c1.5-1.32,2.07-3.69,2.64-5.6.79,4.13,2.89,0,3.71-1.74.18.45.52.92.7,1.37a22,22,0,0,0,1.7-3.92c-.24,1.63.48,2.83,2.06,3a24.48,24.48,0,0,0,2.24-4.15c.28.91,1,1.94,1.06,3.16,2.27.36,2.52-2.29,4.32-3.15.32,3.61,3.58,2.4,5.13.39-.2.81.05,1.76-.11,2.53a13.17,13.17,0,0,0,4-2.31c-.31.9,0,2-.15,2.91,2.14.43,3.5-1.36,5.08-2.34a10.1,10.1,0,0,1-.89,3.74,8.26,8.26,0,0,0,5.08-2.72c0,1.5-.12,3.06-.12,4.56,1.9.51,3.72-.34,5.36-.74-.27,1.18-.59,2.54-.87,3.72,2,.36,3.74-.64,5.41-1.55-.24,1.55-.93,2.87-.92,4.52,2.17.47,4.11-.38,6.13-.31a35.33,35.33,0,0,1-1.7,4c2.13.48,4-.72,6.13-.29a6.6,6.6,0,0,1-.91,4.11c1.21,0,2.55.35,3.77.33a7.54,7.54,0,0,1-1.34,4.85c1.49.18,3.06.21,4.55.38a11.25,11.25,0,0,0-1.67,3.68c1.8.2,3.79-.18,5,1.12-1.12,1.46-2.59,2.84-3.36,4.49,1.52.44,3.29.68,4.9,1.1A15.39,15.39,0,0,1,421.32,81c6.45.6,5.23,2.14,1.66,6.71,1.82.22,3.76.25,5.6.45-.12,2.21-1.85,4.52-2.62,6.73,1.49.17,3.06.2,4.55.37.17,2.07-.78,3.8-1.39,5.63a19.83,19.83,0,0,0,4.13.75c-.08,1.82-1,3.51-1.36,5.26a11.07,11.07,0,0,0,3.44-1.28,10.32,10.32,0,0,1-.53,4.53,11.1,11.1,0,0,0,5.75-.35,12.22,12.22,0,0,1-.91,4.11,6.28,6.28,0,0,0,5.34,0c0,1.35-.08,2.78-.12,4.11,1.3-1.06,2.59-2.22,3.93-3.11a50.16,50.16,0,0,0,.58,5.76,6,6,0,0,0,3.86-1.62,16,16,0,0,0,.69,3.83c1.69-.3,3.39-1.59,5-1.94-.09,1,.46,2,.34,3a39.81,39.81,0,0,0,4-1.92,16.51,16.51,0,0,0,.61,3.73c1.95-.16,3.67-1.73,5.44-2.3,0,1.06.51,1.89.34,3,1.15-.44,2.62-1.14,3.93-1.52-.12.94.36,1.67.29,2.54,1.45-.49,2.44-2,3.9-2.8,0,1.82-.42,3.66.23,5.39a36,36,0,0,1,5.45-2.63c-.16,1.15.06,2.51-.09,3.68a6.84,6.84,0,0,0,4.58-.41c-.46.87-.21,2-.45,3l4.13.35c-.28.66-.08,1.92-.43,2.58,1.75.19,3.58.23,5.32.43-.61,1.37-1.72,2.91-2.49,4.39,6.38.73,4.13.87,2,5.15,5.4,1.75,2.76,2,.2,4.83,1.68,1.11,3.75,1.94,4.68,3.6-1.67.28-3.51.33-4.94,1.06,1.21,1.19,3.3,2.57,3.53,3.6" transform="translate(-106.61 -13.88)"/><path class="cls-23" d="M341.54,238.93s-30,15.76-29.61,69.39c0,0,12.41,10.61,16.38,12.59,0,0-17.75-29.37,22.52-74.46Z" transform="translate(-106.61 -13.88)"/><path class="cls-24" d="M370.08,269.69s-27.72,9.29-27.3,62.93c0,0,10,8.34,12.21,10.79,0,0-10.76-49.56,24.59-56.47Z" transform="translate(-106.61 -13.88)"/><path class="cls-23" d="M389.12,310.41s-25.12,18-22.45,46.1c0,0,4.47,6.67,8.43,8.64,0,0-2.85-31.62,21.15-36.85Z" transform="translate(-106.61 -13.88)"/><path class="cls-24" d="M405.52,356.41s-18.64,6.7-16,34.82c0,0,5.1,12.72,6.47,15.91,0,0-2.28-28.1,16.11-37.15Z" transform="translate(-106.61 -13.88)"/><path class="cls-23" d="M425.41,395.61S411.36,410.35,414,438.47c0,0,7.82,5.88,11.12,9.18,0,0-7.85-25.7,13.57-33.41Z" transform="translate(-106.61 -13.88)"/><path class="cls-24" d="M457.92,431.66s-11.89,11-9.51,30.53c0,0,10.18,5.25,14.38,6.65,0,0-5.91-19,9.79-28.57Z" transform="translate(-106.61 -13.88)"/><path class="cls-25" d="M547.59,421s-.47,59.12,35,70.18l26-1.42S557,485,554.9,420.51Z" transform="translate(-106.61 -13.88)"/><path class="cls-25" d="M587.11,407.49s56.81,25.4,54,70.1a43.58,43.58,0,0,1,17.49-10.36s-25.78-48.38-68.34-63.34Z" transform="translate(-106.61 -13.88)"/><rect class="cls-26" width="617.97" height="566.97"/></g></svg>